<?xml version="1.0" encoding="utf-8"?>
<!-- Uploaded to: SVG Repo, www.svgrepo.com, Generator: SVG Repo Mixer Tools -->
<svg width="800px" height="800px" viewBox="0 0 1024 1024" class="icon"  version="1.1" xmlns="http://www.w3.org/2000/svg"><path d="M897.820468 402.311165L749.017166 283.081767c-18.278401-27.53842-41.925032-51.124642-58.101397-67.023534l-6.670612-6.575391c-87.182812-87.214552-124.043707-94.501544-154.452078-94.501544l-9.78732-0.060409H290.19265c-17.472603 0-42.788168 12.781161-42.788167 35.874894v154.790983l-121.900715 94.934648c-5.740925 4.508167-9.136129 11.421441-9.136129 18.708432v462.371255c0 13.091398 10.618715 23.710112 23.725471 23.710112h742.90969c13.088326 0 23.710112-10.618715 23.710112-23.710112V420.836322c0-7.194842-3.275409-14.01699-8.892444-18.525157z" fill="#27323A" /><path d="M320.386005 590.817668l-156.582783 217.371879V467.97805zM365.087814 609.895724h292.977619l178.627033 247.996288H186.400371zM702.770314 590.881149l156.523397-121.575119v338.82106z" fill="#F4CE73" /><path d="M844.719727 420.558849l-69.213624 53.808246V365.080647zM650.719055 243.012015l6.976755 6.882557c9.263091 9.07572 22.474283 22.230598 35.072168 37.139392-24.389972-6.758667-50.13864-8.611899-73.661382-9.600972-0.989073-17.225847-4.075064-46.987121-12.71768-75.543284 12.593789 10.650455 27.163678 23.956869 44.330139 41.122307z" fill="#79CCBF" /><path d="M519.82146 162.342138l9.847729 0.060409c5.124546 0 11.792087 0.063481 22.012511 3.799638l1.852208 1.944359c25.439455 25.068808 34.515174 88.077687 34.515175 124.385684 0 8.488009 6.729998 15.464764 15.187291 15.775002l5.127617 0.215016c38.713104 1.482586 86.872574 3.366535 115.770714 29.204281 2.406131 6.885629 4.134449 13.739517 4.134449 20.346649l-0.183276-0.369623v153.497816l-66.004767 51.276178H361.135617l-66.311933-52.019518V162.898107c9.879469 0 224.997776-0.55597 224.997776-0.555969z" fill="#FFFFFF" /><path d="M247.404483 473.257203l-68.847073-53.966948 68.847073-53.593229z" fill="#79CCBF" /></svg>