<svg version="1.1" xmlns="http://www.w3.org/2000/svg" xmlns:xlink="http://www.w3.org/1999/xlink" width="800px" height="800px" viewBox="0,0,256,256"><g fill="#0056b3" fill-rule="nonzero" stroke="none" stroke-width="1" stroke-linecap="butt" stroke-linejoin="miter" stroke-miterlimit="10" stroke-dasharray="" stroke-dashoffset="0" font-family="none" font-weight="none" font-size="none" text-anchor="none" style="mix-blend-mode: normal"><g transform="scale(10.66667,10.66667)"><path d="M1,12c0,-0.5523 0.44772,-1 1,-1h20c0.5523,0 1,0.4477 1,1c0,0.5523 -0.4477,1 -1,1h-20c-0.55228,0 -1,-0.4477 -1,-1z"></path><path d="M1,4c0,-0.55228 0.44772,-1 1,-1h20c0.5523,0 1,0.44772 1,1c0,0.55228 -0.4477,1 -1,1h-20c-0.55228,0 -1,-0.44772 -1,-1z"></path><path d="M1,20c0,-0.5523 0.44772,-1 1,-1h20c0.5523,0 1,0.4477 1,1c0,0.5523 -0.4477,1 -1,1h-20c-0.55228,0 -1,-0.4477 -1,-1z"></path></g></g></svg>